<svg version="1.1" id="Layer_1" xmlns="http://www.w3.org/2000/svg" xmlns:xlink="http://www.w3.org/1999/xlink" x="0px" y="0px"
	 width="100%" viewBox="0 0 2245 1587" enable-background="new 0 0 2245 1587" xml:space="preserve">
<path fill="#FFFFFF" opacity="1.000000" stroke="none" 
	d="
M1439.000000,1588.000000 
	C959.333313,1588.000000 480.166656,1588.000000 1.000000,1588.000000 
	C1.000000,1059.000000 1.000000,530.000000 1.000000,1.000000 
	C749.333313,1.000000 1497.666626,1.000000 2246.000000,1.000000 
	C2246.000000,530.000000 2246.000000,1059.000000 2246.000000,1588.000000 
	C1977.166626,1588.000000 1708.333374,1588.000000 1439.000000,1588.000000 
M344.016876,861.647095 
	C351.603882,841.510986 364.713837,825.905151 383.601471,815.751587 
	C407.840729,802.721130 433.087555,801.833740 458.862274,812.170288 
	C458.943787,810.438477 459.045715,809.282959 459.045837,808.127380 
	C459.052979,732.971252 459.056610,657.815125 459.028992,582.658997 
	C459.028137,580.339539 458.937988,577.971008 458.478699,575.708679 
	C454.833832,557.756287 441.426331,547.430237 421.562714,547.422424 
	C332.075256,547.387085 242.587799,547.391357 153.100418,547.460999 
	C149.136475,547.464050 145.063629,547.800537 141.228546,548.742859 
	C124.990242,552.732971 115.395226,566.383545 115.394341,585.075867 
	C115.389137,694.227234 115.392082,803.378540 115.392700,912.529907 
	C115.392723,916.529358 115.287926,920.532288 115.417938,924.527588 
	C116.116333,945.988831 130.432938,959.849304 151.833328,959.849548 
	C223.489944,959.850159 295.146576,959.849731 366.803192,959.849731 
	C368.554108,959.849731 370.305054,959.849731 371.706116,959.849731 
	C365.711548,953.021362 359.039917,946.851013 354.180450,939.485107 
	C349.298340,932.085144 345.155457,923.809326 342.652588,915.337097 
	C340.148499,906.860901 338.996704,897.637390 339.238342,888.795776 
	C339.479797,879.961670 342.181702,871.194763 344.016876,861.647095 
M1484.511108,804.976746 
	C1451.635742,740.699097 1418.723389,676.440308 1385.978027,612.096497 
	C1384.033936,608.276611 1381.915649,606.822449 1377.623535,607.035095 
	C1369.811035,607.422058 1361.965820,607.144958 1354.134155,607.144958 
	C1347.024170,607.144958 1339.914185,607.144958 1332.560059,607.144958 
	C1332.560059,704.131165 1332.560059,800.519531 1332.560059,897.254883 
	C1344.193115,897.254883 1355.556396,897.254883 1367.683594,897.254883 
	C1367.683594,813.348816 1367.683594,729.786560 1367.683594,646.224243 
	C1369.838745,648.067627 1370.939331,650.065430 1371.977661,652.094971 
	C1413.046509,732.361328 1454.127808,812.621399 1495.109253,892.932312 
	C1496.822266,896.289368 1498.650635,897.803650 1502.663452,897.715149 
	C1516.154053,897.417358 1529.655029,897.612244 1543.152100,897.589294 
	C1544.911865,897.586365 1546.671265,897.412292 1548.355225,897.321533 
	C1548.355225,800.317383 1548.355225,703.919861 1548.355225,607.486572 
	C1536.755127,607.486572 1525.518677,607.486572 1513.838135,607.486572 
	C1513.838135,691.989319 1513.838135,776.151550 1513.838135,860.313782 
	C1513.539551,860.390259 1513.241089,860.466736 1512.942505,860.543213 
	C1503.587036,842.236450 1494.231445,823.929749 1484.511108,804.976746 
M629.222534,847.304688 
	C619.831848,839.061096 612.363281,829.273071 607.007446,818.050659 
	C590.880676,784.259521 588.410889,748.980164 596.728516,712.827148 
	C601.932739,690.206421 612.242676,670.159119 630.603027,655.394653 
	C658.480103,632.977173 690.435669,630.244751 723.733093,638.941589 
	C747.587463,645.171997 764.602295,660.500610 775.324097,682.780090 
	C776.127747,684.450012 777.971436,686.777039 779.384216,686.814453 
	C791.503540,687.135254 803.634888,686.998535 815.705139,686.998535 
	C815.811279,686.271973 815.983154,685.904541 815.888550,685.628418 
	C806.188232,657.327576 789.360901,634.694336 762.923401,619.968140 
	C733.956543,603.833130 702.673523,600.463074 670.448242,604.962341 
	C626.144958,611.147949 593.519287,634.452576 574.057373,674.783386 
	C554.254395,715.821045 552.544250,758.803528 563.784668,802.425842 
	C572.035339,834.445251 588.620972,861.376709 616.636719,879.824707 
	C648.788147,900.995911 684.476257,905.239380 721.616516,898.360107 
	C748.547241,893.371826 771.297058,880.649963 787.922668,858.217163 
	C788.119141,857.952026 788.655396,857.938721 789.647461,857.595032 
	C789.647461,871.068054 789.647461,884.138489 789.647461,897.279297 
	C800.442078,897.279297 810.687439,897.279297 821.207214,897.279297 
	C821.207214,846.723083 821.207214,796.484802 821.207214,746.233521 
	C786.546204,746.233521 752.169250,746.233521 717.831787,746.233521 
	C717.831787,756.677185 717.831787,766.722717 717.831787,777.273254 
	C741.140991,777.273254 764.040405,777.273254 787.438782,777.273254 
	C786.933533,783.290833 786.744934,788.791748 785.970276,794.208862 
	C782.308350,819.817200 771.134766,841.006531 748.987000,855.426025 
	C735.879700,863.959717 721.257385,868.210693 705.775879,869.540283 
	C677.690247,871.952454 651.723572,866.803162 629.222534,847.304688 
M2100.945068,864.518433 
	C2083.551025,873.627380 2065.392578,875.611938 2046.885742,868.960449 
	C2025.163208,861.153259 2012.055298,844.672058 2004.002930,823.714111 
	C2000.978882,815.842773 1998.478027,807.795105 1998.752197,798.484619 
	C2055.799316,798.484619 2112.507324,798.484619 2168.968018,798.484619 
	C2168.968018,790.846436 2169.410889,783.853882 2168.888184,776.934265 
	C2167.065918,752.813782 2159.123535,731.174438 2142.064941,713.432983 
	C2124.368896,695.028564 2102.376221,685.862122 2077.286865,683.801819 
	C2040.763062,680.802490 2010.172241,692.597595 1988.121338,722.425720 
	C1968.180420,749.399414 1962.946777,780.166809 1967.820557,813.017883 
	C1975.733154,866.350769 2017.977417,903.271179 2071.975342,901.263916 
	C2114.655273,899.677490 2149.590820,875.051331 2164.004883,834.398987 
	C2164.474854,833.073608 2164.796875,831.695801 2165.333008,829.841125 
	C2154.873535,829.841125 2145.057129,829.972595 2135.248047,829.764771 
	C2132.118652,829.698425 2130.557129,830.708252 2129.249756,833.561890 
	C2123.262939,846.631226 2114.233398,857.049988 2100.945068,864.518433 
M995.765747,897.273560 
	C1028.322388,889.169189 1055.173828,859.866821 1062.359009,829.841125 
	C1053.143799,829.841125 1043.979492,830.115356 1034.843628,829.726135 
	C1030.236572,829.529846 1027.963257,830.990601 1025.902588,835.210571 
	C1009.998962,867.780579 972.291809,881.777405 939.651489,867.077881 
	C920.137634,858.289978 908.193604,842.368042 901.158752,822.672852 
	C898.473511,815.155212 897.069763,807.179810 894.853577,798.520447 
	C953.227966,798.520447 1009.959045,798.520447 1066.807373,798.520447 
	C1066.807373,792.481079 1067.046753,786.986938 1066.765747,781.519653 
	C1065.584229,758.533813 1059.439697,737.229675 1044.598022,719.114502 
	C1026.578857,697.120850 1002.806152,686.110779 974.879822,683.847412 
	C934.968506,680.612549 902.689087,694.646545 881.227051,728.955688 
	C860.707703,761.757751 858.538879,797.414490 870.533142,833.665649 
	C880.843933,864.829102 901.966125,886.172607 933.402222,896.511841 
	C953.737183,903.199890 974.372131,902.527039 995.765747,897.273560 
M1765.087646,705.411865 
	C1746.781982,690.572388 1725.603760,683.972351 1702.282593,683.201355 
	C1659.649292,681.792053 1622.049316,705.947632 1605.884399,745.423401 
	C1595.760132,770.147522 1594.955933,795.586792 1600.756470,821.361694 
	C1605.713013,843.386536 1616.060059,862.499023 1633.324463,877.324768 
	C1657.028076,897.680115 1684.829468,904.122314 1715.326050,900.083191 
	C1747.862549,895.773865 1772.455078,879.129944 1788.685791,850.743408 
	C1803.421753,824.970947 1806.648193,797.109009 1801.341919,768.161133 
	C1796.774902,743.246338 1785.363281,722.145386 1765.087646,705.411865 
M1265.107666,710.398193 
	C1248.606079,683.884277 1211.482910,679.380493 1188.382812,685.657898 
	C1170.990601,690.384094 1158.802979,702.394287 1147.509521,715.550354 
	C1146.643188,716.559631 1145.708496,717.510315 1143.887939,719.481873 
	C1143.887939,707.765930 1143.887939,697.522217 1143.887939,687.332886 
	C1133.057617,687.332886 1122.655151,687.332886 1112.165649,687.332886 
	C1112.165649,757.445007 1112.165649,827.220581 1112.165649,897.160767 
	C1122.872559,897.160767 1133.384521,897.160767 1144.201294,897.160767 
	C1144.201294,894.906372 1144.201416,893.088806 1144.201172,891.271179 
	C1144.196289,861.942444 1143.780151,832.605591 1144.360718,803.288452 
	C1144.649902,788.690552 1145.707764,773.940002 1148.268921,759.588928 
	C1154.080688,727.023865 1175.187744,710.430237 1206.888794,712.015808 
	C1225.761353,712.959778 1237.863770,722.172485 1242.667480,740.420532 
	C1244.681519,748.071289 1245.873047,756.161377 1245.940308,764.064514 
	C1246.300659,806.388000 1246.188477,848.715515 1246.239136,891.041626 
	C1246.241455,892.998108 1246.239380,894.954529 1246.239380,897.252563 
	C1257.307373,897.252563 1267.855225,897.252563 1278.496338,897.252563 
	C1278.628418,896.295776 1278.795044,895.654541 1278.794312,895.013367 
	C1278.746094,850.354431 1278.907104,805.693542 1278.513184,761.037537 
	C1278.357666,743.424744 1275.680786,726.158997 1265.107666,710.398193 
M1909.501465,715.593079 
	C1919.611450,715.593079 1929.721436,715.593079 1939.845947,715.593079 
	C1939.845947,705.713013 1939.845947,696.497192 1939.845947,686.770569 
	C1924.079590,686.770569 1908.687622,686.770569 1892.854492,686.770569 
	C1892.854492,660.017395 1892.854492,633.781555 1892.854492,607.491760 
	C1882.001465,607.491760 1871.606079,607.491760 1860.753052,607.491760 
	C1860.753052,634.073792 1860.753052,660.318909 1860.753052,687.149048 
	C1849.252441,687.149048 1838.202271,687.149048 1827.210693,687.149048 
	C1827.210693,696.850037 1827.210693,705.957397 1827.210693,715.768188 
	C1838.470215,715.768188 1849.504761,715.768188 1860.860352,715.768188 
	C1860.860352,718.448486 1860.860352,720.424011 1860.860352,722.399475 
	C1860.860962,762.211426 1860.805176,802.023560 1860.916870,841.835205 
	C1860.935913,848.642029 1861.206543,855.512390 1862.159668,862.240295 
	C1864.995117,882.253235 1875.185303,893.534912 1895.083862,896.023376 
	C1909.529419,897.829834 1924.297485,897.061218 1938.922485,897.411194 
	C1939.181763,897.417358 1939.450073,897.053284 1939.595947,896.947571 
	C1939.595947,887.623169 1939.595947,878.392883 1939.595947,868.993469 
	C1931.049927,868.993469 1922.889648,869.156006 1914.738281,868.956360 
	C1901.632080,868.635376 1895.495728,863.139343 1893.766602,850.330933 
	C1893.300659,846.880005 1893.098755,843.368225 1893.094604,839.883972 
	C1893.047974,800.238647 1893.063110,760.593262 1893.061768,720.947876 
	C1893.061768,719.328674 1893.061768,717.709534 1893.061768,715.592590 
	C1898.584717,715.592590 1903.543701,715.592590 1909.501465,715.593079 
M423.836060,822.408569 
	C417.836548,824.492981 416.150146,826.759277 416.083710,833.000732 
	C416.037598,837.331970 416.327087,841.687256 415.932892,845.982849 
	C415.799591,847.435669 414.306274,849.508423 412.964691,849.990479 
	C399.176422,854.944824 390.426514,864.437683 387.082825,878.619507 
	C386.311249,881.892090 384.931244,882.513855 382.036713,882.444519 
	C376.377289,882.308716 370.694397,882.192627 365.052429,882.554749 
	C359.340637,882.921326 355.849609,886.615417 356.059113,891.288696 
	C356.292511,896.495728 359.825439,899.696716 365.812164,899.823242 
	C371.807312,899.950012 377.812500,900.005005 383.802673,899.793030 
	C386.800598,899.686951 388.245270,900.697754 389.994110,903.300110 
	C393.469635,908.471863 397.405487,913.584778 402.106720,917.604370 
	C405.985382,920.920654 411.241272,922.626160 416.081360,925.146729 
	C416.081360,930.655457 415.950562,936.318787 416.118317,941.973206 
	C416.284576,947.578491 419.665466,951.052490 424.611755,951.106079 
	C429.626068,951.160400 432.956085,947.888306 433.245270,942.184631 
	C433.481171,937.531128 433.482086,932.852051 433.294495,928.196106 
	C433.183167,925.432129 434.030609,923.857361 436.786285,923.136475 
	C445.258118,920.920227 452.732422,915.976868 456.172913,908.485840 
	C460.238586,899.633667 466.381409,899.463806 474.034912,899.774963 
	C480.887054,900.053467 484.950867,896.366760 484.857971,890.813965 
	C484.775787,885.902832 480.795227,882.653870 474.353577,882.425171 
	C470.728149,882.296448 467.094360,882.401978 463.432312,882.401978 
	C460.060608,866.074158 451.403198,854.857666 435.546722,849.758240 
	C434.513031,849.425781 433.536713,847.287903 433.452026,845.932373 
	C433.182312,841.617310 433.425140,837.273254 433.325470,832.943787 
	C433.170105,826.195557 431.232178,823.899292 423.836060,822.408569 
z"/>
<path fill="#4F47E5" opacity="1.000000" stroke="none" 
	d="
M343.910950,862.022766 
	C342.181702,871.194763 339.479797,879.961670 339.238342,888.795776 
	C338.996704,897.637390 340.148499,906.860901 342.652588,915.337097 
	C345.155457,923.809326 349.298340,932.085144 354.180450,939.485107 
	C359.039917,946.851013 365.711548,953.021362 371.706116,959.849731 
	C370.305054,959.849731 368.554108,959.849731 366.803192,959.849731 
	C295.146576,959.849731 223.489944,959.850159 151.833328,959.849548 
	C130.432938,959.849304 116.116333,945.988831 115.417938,924.527588 
	C115.287926,920.532288 115.392723,916.529358 115.392700,912.529907 
	C115.392082,803.378540 115.389137,694.227234 115.394341,585.075867 
	C115.395226,566.383545 124.990242,552.732971 141.228546,548.742859 
	C145.063629,547.800537 149.136475,547.464050 153.100418,547.460999 
	C242.587799,547.391357 332.075256,547.387085 421.562714,547.422424 
	C441.426331,547.430237 454.833832,557.756287 458.478699,575.708679 
	C458.937988,577.971008 459.028137,580.339539 459.028992,582.658997 
	C459.056610,657.815125 459.052979,732.971252 459.045837,808.127380 
	C459.045715,809.282959 458.943787,810.438477 458.862274,812.170288 
	C433.087555,801.833740 407.840729,802.721130 383.601471,815.751587 
	C364.713837,825.905151 351.603882,841.510986 343.910950,862.022766 
M198.503571,693.627930 
	C260.790680,693.627930 323.077759,693.631531 385.364868,693.613159 
	C387.519867,693.612549 389.705109,693.578979 391.823608,693.235840 
	C396.491150,692.479797 398.643158,689.252625 398.885345,684.858582 
	C399.118317,680.631165 396.607666,677.982666 392.731018,676.858093 
	C390.699432,676.268677 388.473053,676.158752 386.334503,676.157654 
	C320.383484,676.123535 254.432434,676.129761 188.481400,676.130432 
	C187.315643,676.130432 186.143677,676.062378 184.985168,676.156189 
	C179.363602,676.611511 175.658310,680.009460 175.658356,684.652832 
	C175.658401,689.770996 179.242935,693.315918 185.017105,693.578796 
	C189.172226,693.767822 193.342545,693.623291 198.503571,693.627930 
M360.500000,624.872681 
	C369.162354,624.872681 377.824707,624.877869 386.487061,624.871094 
	C394.796509,624.864563 399.034912,621.863220 398.963287,616.053833 
	C398.892395,610.306763 394.621643,607.375732 386.227386,607.375000 
	C320.259979,607.369324 254.292557,607.367126 188.325165,607.394470 
	C186.344101,607.395325 184.312317,607.511780 182.392410,607.955872 
	C177.905838,608.993591 175.544357,612.019592 175.699799,616.584473 
	C175.857605,621.218689 178.678223,623.849609 183.103836,624.660950 
	C184.883820,624.987305 186.754837,624.865479 188.584427,624.865723 
	C245.556290,624.874268 302.528137,624.872620 360.500000,624.872681 
M267.500000,762.153748 
	C285.488129,762.144653 303.476593,762.195923 321.464111,762.087769 
	C326.541107,762.057190 329.824127,758.823669 330.053040,754.229919 
	C330.285919,749.557007 327.420929,746.029907 322.551758,745.191406 
	C321.089935,744.939575 319.565094,745.007080 318.069122,745.006775 
	C274.597412,744.998413 231.125641,744.976257 187.654083,745.059753 
	C185.069702,745.064697 182.286072,745.473145 179.949600,746.500183 
	C176.256042,748.123901 174.821350,751.875671 176.203842,755.264038 
	C177.290726,757.927612 180.134750,760.118591 182.658112,761.848938 
	C183.928131,762.719910 186.220764,762.145935 188.051025,762.146606 
	C214.200684,762.156860 240.350342,762.153687 267.500000,762.153748 
z"/>
<path fill="#5246E4" opacity="1.000000" stroke="none" 
	d="
M1484.693604,805.299866 
	C1494.231445,823.929749 1503.587036,842.236450 1512.942505,860.543213 
	C1513.241089,860.466736 1513.539551,860.390259 1513.838135,860.313782 
	C1513.838135,776.151550 1513.838135,691.989319 1513.838135,607.486572 
	C1525.518677,607.486572 1536.755127,607.486572 1548.355225,607.486572 
	C1548.355225,703.919861 1548.355225,800.317383 1548.355225,897.321533 
	C1546.671265,897.412292 1544.911865,897.586365 1543.152100,897.589294 
	C1529.655029,897.612244 1516.154053,897.417358 1502.663452,897.715149 
	C1498.650635,897.803650 1496.822266,896.289368 1495.109253,892.932312 
	C1454.127808,812.621399 1413.046509,732.361328 1371.977661,652.094971 
	C1370.939331,650.065430 1369.838745,648.067627 1367.683594,646.224243 
	C1367.683594,729.786560 1367.683594,813.348816 1367.683594,897.254883 
	C1355.556396,897.254883 1344.193115,897.254883 1332.560059,897.254883 
	C1332.560059,800.519531 1332.560059,704.131165 1332.560059,607.144958 
	C1339.914185,607.144958 1347.024170,607.144958 1354.134155,607.144958 
	C1361.965820,607.144958 1369.811035,607.422058 1377.623535,607.035095 
	C1381.915649,606.822449 1384.033936,608.276611 1385.978027,612.096497 
	C1418.723389,676.440308 1451.635742,740.699097 1484.693604,805.299866 
z"/>
<path fill="#5145E4" opacity="1.000000" stroke="none" 
	d="
M629.488098,847.540405 
	C651.723572,866.803162 677.690247,871.952454 705.775879,869.540283 
	C721.257385,868.210693 735.879700,863.959717 748.987000,855.426025 
	C771.134766,841.006531 782.308350,819.817200 785.970276,794.208862 
	C786.744934,788.791748 786.933533,783.290833 787.438782,777.273254 
	C764.040405,777.273254 741.140991,777.273254 717.831787,777.273254 
	C717.831787,766.722717 717.831787,756.677185 717.831787,746.233521 
	C752.169250,746.233521 786.546204,746.233521 821.207214,746.233521 
	C821.207214,796.484802 821.207214,846.723083 821.207214,897.279297 
	C810.687439,897.279297 800.442078,897.279297 789.647461,897.279297 
	C789.647461,884.138489 789.647461,871.068054 789.647461,857.595032 
	C788.655396,857.938721 788.119141,857.952026 787.922668,858.217163 
	C771.297058,880.649963 748.547241,893.371826 721.616516,898.360107 
	C684.476257,905.239380 648.788147,900.995911 616.636719,879.824707 
	C588.620972,861.376709 572.035339,834.445251 563.784668,802.425842 
	C552.544250,758.803528 554.254395,715.821045 574.057373,674.783386 
	C593.519287,634.452576 626.144958,611.147949 670.448242,604.962341 
	C702.673523,600.463074 733.956543,603.833130 762.923401,619.968140 
	C789.360901,634.694336 806.188232,657.327576 815.888550,685.628418 
	C815.983154,685.904541 815.811279,686.271973 815.705139,686.998535 
	C803.634888,686.998535 791.503540,687.135254 779.384216,686.814453 
	C777.971436,686.777039 776.127747,684.450012 775.324097,682.780090 
	C764.602295,660.500610 747.587463,645.171997 723.733093,638.941589 
	C690.435669,630.244751 658.480103,632.977173 630.603027,655.394653 
	C612.242676,670.159119 601.932739,690.206421 596.728516,712.827148 
	C588.410889,748.980164 590.880676,784.259521 607.007446,818.050659 
	C612.363281,829.273071 619.831848,839.061096 629.488098,847.540405 
z"/>
<path fill="#5145E4" opacity="1.000000" stroke="none" 
	d="
M2101.258301,864.322266 
	C2114.233398,857.049988 2123.262939,846.631226 2129.249756,833.561890 
	C2130.557129,830.708252 2132.118652,829.698425 2135.248047,829.764771 
	C2145.057129,829.972595 2154.873535,829.841125 2165.333008,829.841125 
	C2164.796875,831.695801 2164.474854,833.073608 2164.004883,834.398987 
	C2149.590820,875.051331 2114.655273,899.677490 2071.975342,901.263916 
	C2017.977417,903.271179 1975.733154,866.350769 1967.820557,813.017883 
	C1962.946777,780.166809 1968.180420,749.399414 1988.121338,722.425720 
	C2010.172241,692.597595 2040.763062,680.802490 2077.286865,683.801819 
	C2102.376221,685.862122 2124.368896,695.028564 2142.064941,713.432983 
	C2159.123535,731.174438 2167.065918,752.813782 2168.888184,776.934265 
	C2169.410889,783.853882 2168.968018,790.846436 2168.968018,798.484619 
	C2112.507324,798.484619 2055.799316,798.484619 1998.752197,798.484619 
	C1998.478027,807.795105 2000.978882,815.842773 2004.002930,823.714111 
	C2012.055298,844.672058 2025.163208,861.153259 2046.885742,868.960449 
	C2065.392578,875.611938 2083.551025,873.627380 2101.258301,864.322266 
M2109.348145,724.083496 
	C2078.371582,703.853149 2038.637695,708.609436 2016.163452,735.409058 
	C2007.884888,745.281189 2003.327759,756.834595 2001.580566,769.619263 
	C2046.293701,769.619263 2090.486084,769.619263 2134.705078,769.619263 
	C2133.240234,750.536316 2125.166260,735.938171 2109.348145,724.083496 
z"/>
<path fill="#5145E4" opacity="1.000000" stroke="none" 
	d="
M995.380371,897.419678 
	C974.372131,902.527039 953.737183,903.199890 933.402222,896.511841 
	C901.966125,886.172607 880.843933,864.829102 870.533142,833.665649 
	C858.538879,797.414490 860.707703,761.757751 881.227051,728.955688 
	C902.689087,694.646545 934.968506,680.612549 974.879822,683.847412 
	C1002.806152,686.110779 1026.578857,697.120850 1044.598022,719.114502 
	C1059.439697,737.229675 1065.584229,758.533813 1066.765747,781.519653 
	C1067.046753,786.986938 1066.807373,792.481079 1066.807373,798.520447 
	C1009.959045,798.520447 953.227966,798.520447 894.853577,798.520447 
	C897.069763,807.179810 898.473511,815.155212 901.158752,822.672852 
	C908.193604,842.368042 920.137634,858.289978 939.651489,867.077881 
	C972.291809,881.777405 1009.998962,867.780579 1025.902588,835.210571 
	C1027.963257,830.990601 1030.236572,829.529846 1034.843628,829.726135 
	C1043.979492,830.115356 1053.143799,829.841125 1062.359009,829.841125 
	C1055.173828,859.866821 1028.322388,889.169189 995.380371,897.419678 
M907.953186,743.519409 
	C903.289001,751.633545 900.304749,760.300232 898.973389,769.636719 
	C943.557678,769.636719 987.751587,769.636719 1033.462769,769.636719 
	C1031.022095,761.657593 1029.697876,754.008911 1026.460815,747.280457 
	C1004.388428,701.401367 933.021423,699.853333 907.953186,743.519409 
z"/>
<path fill="#5145E4" opacity="1.000000" stroke="none" 
	d="
M1765.364868,705.636230 
	C1785.363281,722.145386 1796.774902,743.246338 1801.341919,768.161133 
	C1806.648193,797.109009 1803.421753,824.970947 1788.685791,850.743408 
	C1772.455078,879.129944 1747.862549,895.773865 1715.326050,900.083191 
	C1684.829468,904.122314 1657.028076,897.680115 1633.324463,877.324768 
	C1616.060059,862.499023 1605.713013,843.386536 1600.756470,821.361694 
	C1594.955933,795.586792 1595.760132,770.147522 1605.884399,745.423401 
	C1622.049316,705.947632 1659.649292,681.792053 1702.282593,683.201355 
	C1725.603760,683.972351 1746.781982,690.572388 1765.364868,705.636230 
M1629.842773,790.509949 
	C1629.668701,806.773071 1633.030151,822.170837 1640.715210,836.612488 
	C1662.832153,878.174805 1719.308105,885.653198 1749.747559,850.177307 
	C1773.204712,822.838806 1776.617310,790.966492 1764.368774,757.863770 
	C1754.983643,732.500122 1736.618652,716.221436 1709.060669,712.542786 
	C1687.116211,709.613586 1667.832153,715.984070 1652.243408,731.953491 
	C1636.676880,747.900269 1630.112305,767.531799 1629.842773,790.509949 
z"/>
<path fill="#5146E4" opacity="1.000000" stroke="none" 
	d="
M1265.308105,710.699524 
	C1275.680786,726.158997 1278.357666,743.424744 1278.513184,761.037537 
	C1278.907104,805.693542 1278.746094,850.354431 1278.794312,895.013367 
	C1278.795044,895.654541 1278.628418,896.295776 1278.496338,897.252563 
	C1267.855225,897.252563 1257.307373,897.252563 1246.239380,897.252563 
	C1246.239380,894.954529 1246.241455,892.998108 1246.239136,891.041626 
	C1246.188477,848.715515 1246.300659,806.388000 1245.940308,764.064514 
	C1245.873047,756.161377 1244.681519,748.071289 1242.667480,740.420532 
	C1237.863770,722.172485 1225.761353,712.959778 1206.888794,712.015808 
	C1175.187744,710.430237 1154.080688,727.023865 1148.268921,759.588928 
	C1145.707764,773.940002 1144.649902,788.690552 1144.360718,803.288452 
	C1143.780151,832.605591 1144.196289,861.942444 1144.201172,891.271179 
	C1144.201416,893.088806 1144.201294,894.906372 1144.201294,897.160767 
	C1133.384521,897.160767 1122.872559,897.160767 1112.165649,897.160767 
	C1112.165649,827.220581 1112.165649,757.445007 1112.165649,687.332886 
	C1122.655151,687.332886 1133.057617,687.332886 1143.887939,687.332886 
	C1143.887939,697.522217 1143.887939,707.765930 1143.887939,719.481873 
	C1145.708496,717.510315 1146.643188,716.559631 1147.509521,715.550354 
	C1158.802979,702.394287 1170.990601,690.384094 1188.382812,685.657898 
	C1211.482910,679.380493 1248.606079,683.884277 1265.308105,710.699524 
z"/>
<path fill="#5044E4" opacity="1.000000" stroke="none" 
	d="
M1909.002197,715.592834 
	C1903.543701,715.592590 1898.584717,715.592590 1893.061768,715.592590 
	C1893.061768,717.709534 1893.061768,719.328674 1893.061768,720.947876 
	C1893.063110,760.593262 1893.047974,800.238647 1893.094604,839.883972 
	C1893.098755,843.368225 1893.300659,846.880005 1893.766602,850.330933 
	C1895.495728,863.139343 1901.632080,868.635376 1914.738281,868.956360 
	C1922.889648,869.156006 1931.049927,868.993469 1939.595947,868.993469 
	C1939.595947,878.392883 1939.595947,887.623169 1939.595947,896.947571 
	C1939.450073,897.053284 1939.181763,897.417358 1938.922485,897.411194 
	C1924.297485,897.061218 1909.529419,897.829834 1895.083862,896.023376 
	C1875.185303,893.534912 1864.995117,882.253235 1862.159668,862.240295 
	C1861.206543,855.512390 1860.935913,848.642029 1860.916870,841.835205 
	C1860.805176,802.023560 1860.860962,762.211426 1860.860352,722.399475 
	C1860.860352,720.424011 1860.860352,718.448486 1860.860352,715.768188 
	C1849.504761,715.768188 1838.470215,715.768188 1827.210693,715.768188 
	C1827.210693,705.957397 1827.210693,696.850037 1827.210693,687.149048 
	C1838.202271,687.149048 1849.252441,687.149048 1860.753052,687.149048 
	C1860.753052,660.318909 1860.753052,634.073792 1860.753052,607.491760 
	C1871.606079,607.491760 1882.001465,607.491760 1892.854492,607.491760 
	C1892.854492,633.781555 1892.854492,660.017395 1892.854492,686.770569 
	C1908.687622,686.770569 1924.079590,686.770569 1939.845947,686.770569 
	C1939.845947,696.497192 1939.845947,705.713013 1939.845947,715.593079 
	C1929.721436,715.593079 1919.611450,715.593079 1909.002197,715.592834 
z"/>
<path fill="#5148E5" opacity="1.000000" stroke="none" 
	d="
M424.203339,822.337402 
	C431.232178,823.899292 433.170105,826.195557 433.325470,832.943787 
	C433.425140,837.273254 433.182312,841.617310 433.452026,845.932373 
	C433.536713,847.287903 434.513031,849.425781 435.546722,849.758240 
	C451.403198,854.857666 460.060608,866.074158 463.432312,882.401978 
	C467.094360,882.401978 470.728149,882.296448 474.353577,882.425171 
	C480.795227,882.653870 484.775787,885.902832 484.857971,890.813965 
	C484.950867,896.366760 480.887054,900.053467 474.034912,899.774963 
	C466.381409,899.463806 460.238586,899.633667 456.172913,908.485840 
	C452.732422,915.976868 445.258118,920.920227 436.786285,923.136475 
	C434.030609,923.857361 433.183167,925.432129 433.294495,928.196106 
	C433.482086,932.852051 433.481171,937.531128 433.245270,942.184631 
	C432.956085,947.888306 429.626068,951.160400 424.611755,951.106079 
	C419.665466,951.052490 416.284576,947.578491 416.118317,941.973206 
	C415.950562,936.318787 416.081360,930.655457 416.081360,925.146729 
	C411.241272,922.626160 405.985382,920.920654 402.106720,917.604370 
	C397.405487,913.584778 393.469635,908.471863 389.994110,903.300110 
	C388.245270,900.697754 386.800598,899.686951 383.802673,899.793030 
	C377.812500,900.005005 371.807312,899.950012 365.812164,899.823242 
	C359.825439,899.696716 356.292511,896.495728 356.059113,891.288696 
	C355.849609,886.615417 359.340637,882.921326 365.052429,882.554749 
	C370.694397,882.192627 376.377289,882.308716 382.036713,882.444519 
	C384.931244,882.513855 386.311249,881.892090 387.082825,878.619507 
	C390.426514,864.437683 399.176422,854.944824 412.964691,849.990479 
	C414.306274,849.508423 415.799591,847.435669 415.932892,845.982849 
	C416.327087,841.687256 416.037598,837.331970 416.083710,833.000732 
	C416.150146,826.759277 417.836548,824.492981 424.203339,822.337402 
M433.921844,867.272949 
	C432.004120,866.764038 430.113098,866.091797 428.164276,865.773315 
	C417.720703,864.066650 408.165588,869.567322 404.735992,879.168091 
	C401.099182,889.348999 404.919250,900.093445 414.092346,905.484314 
	C422.804047,910.604004 433.774719,908.706909 440.809143,900.902405 
	C442.788116,898.706787 443.970062,896.727295 442.621094,893.386169 
	C441.850006,891.476196 442.323914,888.016052 443.657867,886.523804 
	C446.354279,883.507385 446.114105,880.588135 444.198517,878.055847 
	C441.366882,874.312561 437.812744,871.115784 433.921844,867.272949 
z"/>
<path fill="#F8F8FE" opacity="1.000000" stroke="none" 
	d="
M198.004822,693.627808 
	C193.342545,693.623291 189.172226,693.767822 185.017105,693.578796 
	C179.242935,693.315918 175.658401,689.770996 175.658356,684.652832 
	C175.658310,680.009460 179.363602,676.611511 184.985168,676.156189 
	C186.143677,676.062378 187.315643,676.130432 188.481400,676.130432 
	C254.432434,676.129761 320.383484,676.123535 386.334503,676.157654 
	C388.473053,676.158752 390.699432,676.268677 392.731018,676.858093 
	C396.607666,677.982666 399.118317,680.631165 398.885345,684.858582 
	C398.643158,689.252625 396.491150,692.479797 391.823608,693.235840 
	C389.705109,693.578979 387.519867,693.612549 385.364868,693.613159 
	C323.077759,693.631531 260.790680,693.627930 198.004822,693.627808 
z"/>
<path fill="#F8F7FE" opacity="1.000000" stroke="none" 
	d="
M360.000000,624.872681 
	C302.528137,624.872620 245.556290,624.874268 188.584427,624.865723 
	C186.754837,624.865479 184.883820,624.987305 183.103836,624.660950 
	C178.678223,623.849609 175.857605,621.218689 175.699799,616.584473 
	C175.544357,612.019592 177.905838,608.993591 182.392410,607.955872 
	C184.312317,607.511780 186.344101,607.395325 188.325165,607.394470 
	C254.292557,607.367126 320.259979,607.369324 386.227386,607.375000 
	C394.621643,607.375732 398.892395,610.306763 398.963287,616.053833 
	C399.034912,621.863220 394.796509,624.864563 386.487061,624.871094 
	C377.824707,624.877869 369.162354,624.872681 360.000000,624.872681 
z"/>
<path fill="#FFFFFF" opacity="1.000000" stroke="none" 
	d="
M267.000000,762.153748 
	C240.350342,762.153687 214.200684,762.156860 188.051025,762.146606 
	C186.220764,762.145935 183.928131,762.719910 182.658112,761.848938 
	C180.134750,760.118591 177.290726,757.927612 176.203842,755.264038 
	C174.821350,751.875671 176.256042,748.123901 179.949600,746.500183 
	C182.286072,745.473145 185.069702,745.064697 187.654083,745.059753 
	C231.125641,744.976257 274.597412,744.998413 318.069122,745.006775 
	C319.565094,745.007080 321.089935,744.939575 322.551758,745.191406 
	C327.420929,746.029907 330.285919,749.557007 330.053040,754.229919 
	C329.824127,758.823669 326.541107,762.057190 321.464111,762.087769 
	C303.476593,762.195923 285.488129,762.144653 267.000000,762.153748 
z"/>
<path fill="#FEFEFF" opacity="1.000000" stroke="none" 
	d="
M2109.641113,724.294189 
	C2125.166260,735.938171 2133.240234,750.536316 2134.705078,769.619263 
	C2090.486084,769.619263 2046.293701,769.619263 2001.580566,769.619263 
	C2003.327759,756.834595 2007.884888,745.281189 2016.163452,735.409058 
	C2038.637695,708.609436 2078.371582,703.853149 2109.641113,724.294189 
z"/>
<path fill="#FEFEFF" opacity="1.000000" stroke="none" 
	d="
M908.134888,743.203674 
	C933.021423,699.853333 1004.388428,701.401367 1026.460815,747.280457 
	C1029.697876,754.008911 1031.022095,761.657593 1033.462769,769.636719 
	C987.751587,769.636719 943.557678,769.636719 898.973389,769.636719 
	C900.304749,760.300232 903.289001,751.633545 908.134888,743.203674 
z"/>
<path fill="#FEFEFF" opacity="1.000000" stroke="none" 
	d="
M1629.851074,790.018127 
	C1630.112305,767.531799 1636.676880,747.900269 1652.243408,731.953491 
	C1667.832153,715.984070 1687.116211,709.613586 1709.060669,712.542786 
	C1736.618652,716.221436 1754.983643,732.500122 1764.368774,757.863770 
	C1776.617310,790.966492 1773.204712,822.838806 1749.747559,850.177307 
	C1719.308105,885.653198 1662.832153,878.174805 1640.715210,836.612488 
	C1633.030151,822.170837 1629.668701,806.773071 1629.851074,790.018127 
z"/>
<path fill="#FDFDFF" opacity="1.000000" stroke="none" 
	d="
M434.244049,867.479614 
	C437.812744,871.115784 441.366882,874.312561 444.198517,878.055847 
	C446.114105,880.588135 446.354279,883.507385 443.657867,886.523804 
	C442.323914,888.016052 441.850006,891.476196 442.621094,893.386169 
	C443.970062,896.727295 442.788116,898.706787 440.809143,900.902405 
	C433.774719,908.706909 422.804047,910.604004 414.092346,905.484314 
	C404.919250,900.093445 401.099182,889.348999 404.735992,879.168091 
	C408.165588,869.567322 417.720703,864.066650 428.164276,865.773315 
	C430.113098,866.091797 432.004120,866.764038 434.244049,867.479614 
z"/>
</svg>